<svg height="375" viewBox="0 0 745 375" width="745" xmlns="http://www.w3.org/2000/svg"><g fill="none" fill-rule="evenodd"><g transform="translate(210)"><g stroke="#fff" stroke-width="1.6"><path d="m45.6589147 65.4217687c0 12.6349225-10.2210962 22.877551-22.8294573 22.877551-12.6083612 0-22.8294574-10.2426285-22.8294574-22.877551v-31.3061224c0-12.6349226 10.2210962-22.8775511 22.8294574-22.8775511 12.6083611 0 22.8294573 10.2426285 22.8294573 22.8775511"/><rect height="75.461225" rx="22.029457" width="44.058915" x="60.076486" y="12.038095"/><rect height="75.461225" rx="22.029457" width="44.058915" x="205.864599" y="12.038095"/><path d="m264.320411 9.68825934v79.41378146"/><path d="m250.702839 9.68825934v79.41378146"/><path d="m250.723514 63.8163265v31.3061225c0 12.634923-10.221096 22.877551-22.829457 22.877551s-22.829458-10.242628-22.829458-22.877551"/><path d="m264.341085 80.2721088v-46.9591836c0-12.6349226 10.221096-22.8775511 22.829458-22.8775511 12.608361 0 22.829457 10.2426285 22.829457 22.8775511v55.4887174"/><path d="m185.819119 9.68825934v79.41378146"/><g transform="translate(120.547804 8.829932)"><path d="m.40826873 33.3129252v-10.4353742c0-12.6349225 10.22109617-22.877551 22.82945737-22.877551 10.9556078 0 20.1087945 7.73333986 22.3202154 18.0498483"/><path d="m46.8682171 48.5646259v10.4353741c0 12.6349225-10.2210963 22.877551-22.8294574 22.877551-10.5292295 0-19.3936036-7.1431098-22.03077785-16.8573736"/><path d="m9.2196382 28.8979592 28.0361758 27.292517"/></g></g><ellipse cx="185.839793" cy="1.605442" fill="#fff" fill-rule="nonzero" rx="1.602067" ry="1.605442"/><path d="m35.245478 101.142857h37.271453" stroke="#fff" stroke-width="1.6"/></g><g stroke="#fff"><g stroke-width="1.6"><g transform="translate(4 178)"><ellipse cx="64.011516" cy="64" rx="64.011516" ry="64"/><path d="m112.959722 23.6200025-96.6217328 168.3799975h111.6850438"/></g><ellipse cx="606.988483" cy="242" rx="64.011516" ry="64"/><ellipse cx="606.988483" cy="306" rx="64.011516" ry="64"/><g transform="translate(388.069098 178)"><path d="m.50157523 48.8045734 44.68193097-48.8045734v190.72"/><path d="m.50157523 190.72h89.88552417"/></g><rect height="192" rx="63.999997" width="128.023033" x="196.034549" y="178"/></g><g><ellipse cx="730.207547" cy="337.107843" rx="14.792453" ry="14.892157"/><ellipse cx="726.792453" cy="335.892157" rx="14.792453" ry="14.892157"/></g></g></g></svg>