<?xml version="1.0" encoding="UTF-8"?>
<svg width="250px" height="250px" viewBox="0 0 250 250" version="1.1" xmlns="http://www.w3.org/2000/svg" xmlns:xlink="http://www.w3.org/1999/xlink">
    <!-- Generator: Sketch 52.5 (67469) - http://www.bohemiancoding.com/sketch -->
    <title>ic_1</title>
    <desc>Created with Sketch.</desc>
    <defs>
        <circle id="path-1" cx="120" cy="12" r="6"></circle>
        <circle id="path-2" cx="154" cy="74" r="6"></circle>
        <circle id="path-3" cx="92" cy="112" r="6"></circle>
        <circle id="path-4" cx="28" cy="74" r="6"></circle>
        <circle id="path-5" cx="66" cy="12" r="6"></circle>
    </defs>
    <g id="ic_1" stroke="none" stroke-width="1" fill="none" fill-rule="evenodd">
        <g id="interdisciplinarity-user" transform="translate(35.000000, 66.000000)">
            <g id="Group-8-Copy-4" transform="translate(64.000000, 44.000000)" stroke="#3F3F3F" stroke-linecap="round" stroke-linejoin="round" stroke-width="2">
                <circle id="Oval-22-Copy-3" cx="28" cy="17.1111111" r="17.1111111"></circle>
                <path d="M38.8888889,31.1111111 C44.7188546,34.6740689 54.3504535,43.8044299 54.3330449,61.0037182" id="Path-2-Copy"></path>
                <path d="M53.7310088,61.6314874 C43.1505057,70.3907197 13.7421922,68.9733398 2.77979222,63.5463328 C-1.06622338,61.6423378 3.85499412,37.0991751 16.9854962,31.1111111" id="Path-33-Copy"></path>
            </g>
            <g id="Group-8-Copy-5" transform="translate(127.000000, 6.000000)" stroke="#3F3F3F" stroke-linecap="round" stroke-linejoin="round" stroke-width="2">
                <circle id="Oval-22-Copy-3" cx="27" cy="17.1111111" r="17.1111111"></circle>
                <path d="M37.8888889,31.1111111 C43.7188546,34.6740689 53.3504535,43.8044299 53.3330449,61.0037182" id="Path-2-Copy"></path>
                <path d="M52.7310088,61.6314874 C42.1505057,70.3907197 12.7421922,68.9733398 1.77979222,63.5463328 C-2.06622338,61.6423378 2.85499412,37.0991751 15.9854962,31.1111111" id="Path-33-Copy"></path>
            </g>
            <g id="Group-8-Copy-6" transform="translate(0.000000, 6.000000)" stroke="#3F3F3F" stroke-linecap="round" stroke-linejoin="round" stroke-width="2">
                <circle id="Oval-22-Copy-3" cx="28" cy="17.1111111" r="17.1111111"></circle>
                <path d="M38.8888889,31.1111111 C44.7188546,34.6740689 54.3504535,43.8044299 54.3330449,61.0037182" id="Path-2-Copy"></path>
                <path d="M53.7310088,61.6314874 C43.1505057,70.3907197 13.7421922,68.9733398 2.77979222,63.5463328 C-1.06622338,61.6423378 3.85499412,37.0991751 16.9854962,31.1111111" id="Path-33-Copy"></path>
            </g>
            <ellipse id="Oval-2" stroke="#3F3F3F" stroke-width="2" stroke-linecap="round" stroke-linejoin="round" cx="92" cy="12" rx="26" ry="12"></ellipse>
            <g id="Oval-Copy-158" transform="translate(120.000000, 12.000000) rotate(-90.000000) translate(-120.000000, -12.000000) " stroke="#151515">
                <circle stroke-width="3" stroke-linejoin="square" fill="#C2C2C2" fill-rule="evenodd" cx="120" cy="12" r="4.5"></circle>
                <use stroke-width="2" xlink:href="#path-1"></use>
            </g>
            <g id="Oval-Copy-160" transform="translate(154.000000, 74.000000) rotate(-90.000000) translate(-154.000000, -74.000000) " stroke="#151515">
                <circle stroke-width="3" stroke-linejoin="square" fill="#C2C2C2" fill-rule="evenodd" cx="154" cy="74" r="4.5"></circle>
                <use stroke-width="2" xlink:href="#path-2"></use>
            </g>
            <g id="Oval-Copy-161" transform="translate(92.000000, 112.000000) rotate(-90.000000) translate(-92.000000, -112.000000) " stroke="#151515">
                <circle stroke-width="3" stroke-linejoin="square" fill="#C2C2C2" fill-rule="evenodd" cx="92" cy="112" r="4.5"></circle>
                <use stroke-width="2" xlink:href="#path-3"></use>
            </g>
            <g id="Oval-Copy-162" transform="translate(28.000000, 74.000000) rotate(-90.000000) translate(-28.000000, -74.000000) " stroke="#151515">
                <circle stroke-width="3" stroke-linejoin="square" fill="#C2C2C2" fill-rule="evenodd" cx="28" cy="74" r="4.5"></circle>
                <use stroke-width="2" xlink:href="#path-4"></use>
            </g>
            <g id="Oval-Copy-159" transform="translate(66.000000, 12.000000) rotate(-90.000000) translate(-66.000000, -12.000000) " stroke="#151515">
                <circle stroke-width="3" stroke-linejoin="square" fill="#C2C2C2" fill-rule="evenodd" cx="66" cy="12" r="4.5"></circle>
                <use stroke-width="2" xlink:href="#path-5"></use>
            </g>
        </g>
    </g>
</svg>